<svg width="56" height="56" viewBox="0 0 56 56" fill="none" xmlns="http://www.w3.org/2000/svg">
<path d="M0 16C0 7.16344 7.16344 0 16 0H40C48.8366 0 56 7.16344 56 16V40C56 48.8366 48.8366 56 40 56H16C7.16344 56 0 48.8366 0 40V16Z" fill="url(#paint0_linear_1439_630)"/>
<path d="M38.5 31.5V36.1667C38.5 36.7855 38.2542 37.3789 37.8166 37.8166C37.3789 38.2542 36.7855 38.5 36.1667 38.5H19.8333C19.2145 38.5 18.621 38.2542 18.1834 37.8166C17.7458 37.3789 17.5 36.7855 17.5 36.1667V31.5M22.1667 25.6667L28 31.5M28 31.5L33.8333 25.6667M28 31.5V17.5" stroke="white" stroke-width="2.33333" stroke-linecap="round" stroke-linejoin="round"/>
<defs>
<linearGradient id="paint0_linear_1439_630" x1="28" y1="0" x2="28" y2="56" gradientUnits="userSpaceOnUse">
<stop stop-color="#44B564"/>
<stop offset="1" stop-color="#279C5C"/>
</linearGradient>
</defs>
</svg>
