<svg width="64" height="64" viewBox="0 0 64 64" fill="none" xmlns="http://www.w3.org/2000/svg">
<path d="M0 32C0 14.3269 14.3269 0 32 0C49.6731 0 64 14.3269 64 32C64 49.6731 49.6731 64 32 64C14.3269 64 0 49.6731 0 32Z" fill="url(#paint0_linear_1439_531)"/>
<path d="M32.0013 18.6665V23.9998M32.0013 39.9998V45.3332M24.0013 31.9998H18.668M45.3346 31.9998H40.0013M41.428 22.5732L37.6546 26.3465M26.348 37.6532L22.5746 41.4265M41.428 41.4265L37.6546 37.6532M26.348 26.3465L22.5746 22.5732" stroke="white" stroke-width="2.66667" stroke-linecap="round" stroke-linejoin="round"/>
<defs>
<linearGradient id="paint0_linear_1439_531" x1="32" y1="0" x2="32" y2="64" gradientUnits="userSpaceOnUse">
<stop stop-color="#44B564"/>
<stop offset="1" stop-color="#279C5C"/>
</linearGradient>
</defs>
</svg>
