<svg width="64" height="64" viewBox="0 0 64 64" fill="none" xmlns="http://www.w3.org/2000/svg">
<path d="M0 32C0 14.3269 14.3269 0 32 0C49.6731 0 64 14.3269 64 32C64 49.6731 49.6731 64 32 64C14.3269 64 0 49.6731 0 32Z" fill="url(#paint0_linear_1439_519)"/>
<path d="M28 30.6667L32 34.6667L45.3333 21.3333M44 32V41.3333C44 42.0405 43.7191 42.7188 43.2189 43.2189C42.7188 43.7191 42.0405 44 41.3333 44H22.6667C21.9594 44 21.2811 43.7191 20.7811 43.2189C20.2809 42.7188 20 42.0405 20 41.3333V22.6667C20 21.9594 20.2809 21.2811 20.7811 20.7811C21.2811 20.2809 21.9594 20 22.6667 20H37.3333" stroke="white" stroke-width="2.66667" stroke-linecap="round" stroke-linejoin="round"/>
<defs>
<linearGradient id="paint0_linear_1439_519" x1="32" y1="0" x2="32" y2="64" gradientUnits="userSpaceOnUse">
<stop stop-color="#44B564"/>
<stop offset="1" stop-color="#279C5C"/>
</linearGradient>
</defs>
</svg>
